# xmcd
#
# Track frame offsets: 
#        193
#        21595
#        43029
#        64108
#        88097
#        99807
#        121794
#        142279
#        162956
#        182758
#        200582
#        229379
#        258728
#        289109
#        307742
#        333546
#
# Disc length: 4799 seconds
#
# Revision: 0
# Processed by: cddbd v1.5.2PL0 Copyright (c) Steve Scherf et al.
# Submitted via: ExactAudioCopy v1.0b3
#
DISCID=ed12bd10
DTITLE=Kashif - Love Changes
DYEAR=1987
DGENRE=R&B
TTITLE0=Love Changes
TTITLE1=Loving You Only
TTITLE2=It All Begins Again
TTITLE3=Love Me All Over
TTITLE4=Midnight Mood
TTITLE5=Fifty Ways (To Fall In Love)
TTITLE6=Somebody
TTITLE7=Who's Getting Serious?
TTITLE8=Reservations For Two
TTITLE9=Vacant Heart
TTITLE10=Love Changes (Full Version)
TTITLE11=Loving You Only (Extended Remix)
TTITLE12=Love Me All Over (Extended Version)
TTITLE13=Love Changes (A Capella Version)
TTITLE14=Kathryn (Instrumental)
TTITLE15=Love Changes (Instrumental Version)
EXTD=
EXTT0=
EXTT1=
EXTT2=
EXTT3=
EXTT4=
EXTT5=
EXTT6=
EXTT7=
EXTT8=
EXTT9=
EXTT10=
EXTT11=
EXTT12=
EXTT13=
EXTT14=
EXTT15=
PLAYORDER=
